<?xml version="1.0" encoding="UTF-8" standalone="no" ?>
<!DOCTYPE svg PUBLIC "-//W3C//DTD SVG 1.1//EN" "http://www.w3.org/Graphics/SVG/1.1/DTD/svg11.dtd">
<svg xmlns="http://www.w3.org/2000/svg" xmlns:xlink="http://www.w3.org/1999/xlink" version="1.1" width="1080" height="1080" viewBox="0 0 1080 1080" xml:space="preserve">
<desc>Created with Fabric.js 5.2.4</desc>
<defs>
</defs>
<g transform="matrix(1 0 0 1 540 540)" id="5029a086-6c54-41eb-b078-522518432b51"  >
<rect style="stroke: none; stroke-width: 1; stroke-dasharray: none; stroke-linecap: butt; stroke-dashoffset: 0; stroke-linejoin: miter; stroke-miterlimit: 4; fill: rgb(255,255,255); fill-rule: nonzero; opacity: 1; visibility: hidden;" vector-effect="non-scaling-stroke"  x="-540" y="-540" rx="0" ry="0" width="1080" height="1080" />
</g>
<g transform="matrix(1 0 0 1 540 540)" id="e0244a4a-4f4e-4102-a2f8-3e4ea53b0312"  >
</g>
<g transform="matrix(31.81 0 0 31.81 589.15 506.71)" id="1d241740-51ed-4fd4-a2f4-dc3da2ad1d73"  >
<path style="stroke: rgb(0,0,0); stroke-width: 0; stroke-dasharray: none; stroke-linecap: butt; stroke-dashoffset: 0; stroke-linejoin: miter; stroke-miterlimit: 4; fill: rgb(88,129,87); fill-rule: nonzero; opacity: 1;" vector-effect="non-scaling-stroke"  transform=" translate(-8, -8)" d="M 8 0 C 5.829 0 5.556 0.01 4.703 0.048 C 3.85 0.088 3.269 0.222 2.76 0.42 C 2.225844317407585 0.6203255723052807 1.7421410044364263 0.9353983724975032 1.3429999999999978 1.3430000000000022 C 0.9353983724975012 1.742141004436429 0.620325572305279 2.2258443174075864 0.4199999999999988 2.7600000000000016 C 0.222 3.268 0.087 3.85 0.048 4.7 C 0.01 5.555 0 5.827 0 8.001 C 0 10.173 0.01 10.445 0.048 11.298 C 0.088 12.15 0.22199999999999998 12.731 0.42 13.24 C 0.625 13.766 0.8979999999999999 14.212 1.343 14.657 C 1.787 15.102 2.233 15.376 2.759 15.58 C 3.269 15.778 3.849 15.913 4.701 15.952 C 5.555 15.99 5.827 16 8 16 C 10.173 16 10.443999999999999 15.99 11.298 15.952 C 12.149000000000001 15.912 12.732 15.778 13.241 15.58 C 13.774797866225484 15.379544972247238 14.258148292514333 15.064479687314606 14.657 14.657 C 15.102 14.212 15.375 13.766 15.58 13.24 C 15.777 12.731 15.912 12.15 15.952 11.298 C 15.99 10.445 16 10.173 16 8 C 16 5.827 15.99 5.555 15.952 4.7010000000000005 C 15.912 3.8500000000000005 15.777 3.2680000000000007 15.58 2.7600000000000007 C 15.37967442769472 2.225844317407586 15.0646016275025 1.7421410044364296 14.657 1.3430000000000009 C 14.257858995563572 0.9353983724975019 13.774155682592415 0.6203255723052807 13.24 0.42000000000000015 C 12.73 0.22199999999999998 12.148 0.08699999999999997 11.297 0.04799999999999999 C 10.443 0.01 10.172 0 7.998 0 z M 7.283 1.442 L 8.001000000000001 1.442 C 10.137 1.442 10.39 1.4489999999999998 11.233 1.488 C 12.013 1.523 12.437000000000001 1.654 12.719000000000001 1.763 C 13.092 1.908 13.359000000000002 2.082 13.639000000000001 2.362 C 13.919 2.6420000000000003 14.092 2.9080000000000004 14.237000000000002 3.282 C 14.347000000000001 3.563 14.477000000000002 3.987 14.512000000000002 4.767 C 14.551000000000002 5.61 14.559000000000003 5.863 14.559000000000003 7.998 C 14.559000000000003 10.133 14.551000000000004 10.387 14.512000000000002 11.23 C 14.477000000000002 12.01 14.346000000000002 12.433 14.237000000000002 12.715 C 14.107832722942694 13.06190179106863 13.903241376406388 13.375790685003295 13.638000000000002 13.634 C 13.358000000000002 13.914 13.092000000000002 14.087 12.718000000000002 14.232000000000001 C 12.438000000000002 14.342 12.014000000000001 14.472000000000001 11.233000000000002 14.508000000000001 C 10.390000000000002 14.546000000000001 10.137000000000002 14.555000000000001 8.001000000000001 14.555000000000001 C 5.865 14.555000000000001 5.611000000000001 14.546000000000001 4.768000000000001 14.508000000000001 C 3.9880000000000004 14.472000000000001 3.5650000000000004 14.342 3.2830000000000004 14.232000000000001 C 2.935832985054387 14.103255943794924 2.6215984001389745 13.899003463599906 2.3630000000000004 13.634 C 2.097273677818364 13.37560272132004 1.8923280110689056 13.061352698970872 1.7630000000000001 12.714 C 1.6540000000000004 12.433 1.5230000000000004 12.009 1.4880000000000004 11.229000000000001 C 1.4500000000000004 10.386000000000001 1.4420000000000004 10.133000000000001 1.4420000000000004 7.996 C 1.4420000000000004 5.859 1.4500000000000004 5.6080000000000005 1.4880000000000004 4.765000000000001 C 1.5240000000000005 3.9850000000000003 1.6540000000000004 3.561000000000001 1.7640000000000005 3.279000000000001 C 1.9090000000000005 2.9060000000000006 2.0830000000000006 2.6390000000000007 2.3630000000000004 2.359000000000001 C 2.6430000000000002 2.079000000000001 2.9090000000000007 1.9060000000000008 3.2830000000000004 1.761000000000001 C 3.5650000000000004 1.651000000000001 3.9880000000000004 1.521000000000001 4.768000000000001 1.485000000000001 C 5.506 1.451000000000001 5.792000000000001 1.441000000000001 7.283000000000001 1.440000000000001 z M 12.271 2.77 C 11.928025028459825 2.7699999921574903 11.611103082108063 2.952974956754199 11.439615594074036 3.2499999936631525 C 11.268128106040011 3.5470250305721054 11.268128106040011 3.912974969427894 11.439615594074036 4.2100000063368475 C 11.611103082108063 4.5070250432458 11.928025028459825 4.690000007842509 12.271 4.6899999999999995 C 12.801193359837562 4.6899999999999995 13.231000000000002 4.260193359837562 13.231000000000002 3.7299999999999995 C 13.231000000000002 3.199806640162438 12.801193359837562 2.7699999999999996 12.271 2.7699999999999996 M 8.001000000000001 3.8919999999999995 C 6.5178978469976165 3.8688611040804886 5.13744499747833 4.646836708434125 4.3891338377881155 5.927523170074043 C 3.6408226780979005 7.2082096317139595 3.6408226780979005 8.792790368286042 4.3891338377881155 10.073476829925958 C 5.1374449974783305 11.354163291565875 6.5178978469976165 12.13213889591951 8.001000000000001 12.109 C 10.245071745417803 12.073988694508992 12.045900468020454 10.244844846518621 12.045900468020454 8.000499999999999 C 12.045900468020454 5.756155153481379 10.245071745417805 3.927011305491007 8.001000000000001 3.8919999999999995 M 8.001000000000001 5.332999999999999 C 8.953827341323723 5.332999980442023 9.834276121204933 5.841327304449837 10.310689797512698 6.6664999841969035 C 10.78710347382046 7.49167266394397 10.787103473820462 8.50832733605602 10.310689797512701 9.33350001580309 C 9.834276121204939 10.158672695550155 8.953827341323727 10.667000019557973 8.001000000000005 10.666999999999998 C 6.528056572201275 10.666999999999998 5.334000000000001 9.472943427798725 5.334000000000001 7.999999999999998 C 5.334000000000001 6.527056572201272 6.528056572201275 5.332999999999998 8.001000000000001 5.332999999999998" stroke-linecap="round" />
</g>
</svg>